<svg xmlns="http://www.w3.org/2000/svg" width="39.997" height="40.002" viewBox="0 0 39.997 40.002">
  <g id="模具派工" transform="translate(13883 8510)">
    <g id="组_2451" data-name="组 2451">
      <path id="矩形_1348" data-name="矩形 1348" d="M3.789,0H31.167a3.79,3.79,0,0,1,3.789,3.79V31.175a3.789,3.789,0,0,1-3.789,3.79H3.79A3.79,3.79,0,0,1,0,31.174V3.789A3.789,3.789,0,0,1,3.789,0Z" transform="translate(-13877.53 -8510) rotate(9)" fill="#acbbff"/>
      <rect id="矩形_1349" data-name="矩形 1349" width="30.575" height="30.587" rx="4" transform="translate(-13878.289 -8505.292)" fill="#3e5ff5"/>
    </g>
    <g id="组_1405" data-name="组 1405" transform="translate(-13874 -8500.999)">
      <path id="路径_695" data-name="路径 695" d="M585.037,234.509l.144-.19a.616.616,0,0,0-.122-.863l-3.912-2.944a.616.616,0,0,0-.863.122l-3.021,4.012,1.175.884,2.135-2.837a.616.616,0,0,1,.863-.122l2.736,2.059a.616.616,0,0,0,.863-.122Z" transform="translate(-563.657 -230.388)" fill="#fff"/>
      <path id="路径_696" data-name="路径 696" d="M585.037,355.005l.144.19a.616.616,0,0,1-.122.863L581.147,359a.616.616,0,0,1-.863-.122l-3.021-4.012,1.175-.884,2.135,2.837a.616.616,0,0,0,.863.122l2.736-2.06a.616.616,0,0,1,.864.123Z" transform="translate(-563.657 -349.224)" fill="#fff"/>
      <path id="路径_697" data-name="路径 697" d="M250.193,328.626a.616.616,0,0,0-.843-.225l-3.189,1.842a.616.616,0,0,0-.225.841l6.132,10.619h-3.862a.616.616,0,0,0-.616.616v2.93a.616.616,0,0,0,.616.616h13.475a.616.616,0,0,0,.616-.616v-2.934a.616.616,0,0,0-.616-.616h-3.937Z" transform="translate(-245.011 -324.546)" fill="#fff"/>
      <path id="路径_698" data-name="路径 698" d="M310,313.089m.616,0h9.059a.545.545,0,0,1,.616.616v1.954a.545.545,0,0,1-.616.616h-9.059a.545.545,0,0,1-.616-.616v-1.954a.545.545,0,0,1,.616-.616Z" transform="translate(-306.689 -309.904)" fill="#fff"/>
      <path id="路径_699" data-name="路径 699" d="M545.457,294m.616,0h1.71a.545.545,0,0,1,.616.616v3.424a.545.545,0,0,1-.616.616h-1.71a.545.545,0,0,1-.616-.616v-3.424a.545.545,0,0,1,.616-.616Z" transform="translate(-533.073 -291.552)" fill="#fff"/>
      <path id="路径_700" data-name="路径 700" d="M228.012,260.012m-4.012,0A4.012,4.012,0,1,0,228.012,256,4.012,4.012,0,0,0,224,260.012Z" transform="translate(-224 -255.015)" fill="#3e5ff5"/>
      <path id="路径_701" data-name="路径 701" d="M310.858,339.4m-.858,0a.858.858,0,1,0,.858-.858A.858.858,0,0,0,310,339.4Z" transform="translate(-306.688 -334.378)" fill="#fff"/>
      <path id="路径_702" data-name="路径 702" d="M255.785,287.4a3.065,3.065,0,1,0-3.065-3.065A3.065,3.065,0,0,0,255.785,287.4Zm0-1.47a1.593,1.593,0,1,0-1.593-1.594,1.593,1.593,0,0,0,1.593,1.594Z" transform="translate(-251.613 -279.314)" fill="#fff"/>
    </g>
  </g>
</svg>
