<svg xmlns="http://www.w3.org/2000/svg" width="39.997" height="40.002" viewBox="0 0 39.997 40.002">
  <g id="派工回收" transform="translate(13786 8454)">
    <g id="组_2446" data-name="组 2446" transform="translate(-0.002 0.439)">
      <path id="矩形_1348" data-name="矩形 1348" d="M3.789,0H31.167a3.79,3.79,0,0,1,3.789,3.79V31.175a3.789,3.789,0,0,1-3.789,3.79H3.79A3.79,3.79,0,0,1,0,31.174V3.789A3.789,3.789,0,0,1,3.789,0Z" transform="translate(-13780.528 -8454.439) rotate(9)" fill="#afd7fb"/>
      <rect id="矩形_1349" data-name="矩形 1349" width="30.575" height="30.587" rx="4" transform="translate(-13781.287 -8449.731)" fill="#48aefb"/>
    </g>
    <g id="组_2445" data-name="组 2445" transform="translate(-48.575 0.139)">
      <path id="路径_662" data-name="路径 662" d="M24.536,31.432a6.186,6.186,0,0,1,8.755-5.639l-.01-1.321V15.149a2.051,2.051,0,0,0-2.05-2.049h-14.4a2.05,2.05,0,0,0-2.05,2.05V32.807a2.049,2.049,0,0,0,2.05,2.049h8.726a6.162,6.162,0,0,1-1.026-3.424Z" transform="translate(-13742.21 -8458.239)" fill="#fff"/>
      <path id="路径_663" data-name="路径 663" d="M27.161,20.6H19.547a.816.816,0,0,1,0-1.632h7.613a.816.816,0,0,1,0,1.632ZM23.9,25.5h-4.35a.815.815,0,0,1,0-1.631H23.9a.815.815,0,1,1,0,1.631Z" transform="translate(-13742.133 -8458.125)" fill="#48aefb"/>
      <path id="路径_664" data-name="路径 664" d="M30.513,26.8a4.363,4.363,0,1,0,4.363,4.363A4.363,4.363,0,0,0,30.513,26.8Z" transform="translate(-13741.989 -8457.976)" fill="#fff"/>
      <path id="路径_758" data-name="路径 758" d="M6.3,4.05a0,0,0,0,0,0,0l0,.009a.065.065,0,0,1-.006.012.019.019,0,0,0,0,0L6.047,4.5,5.322,5.738a.139.139,0,0,1-.119.07H4.565v.186a.146.146,0,0,1-.088.135.134.134,0,0,1-.154-.036l-.857-.951a.151.151,0,0,1,0-.2l.857-.952a.136.136,0,0,1,.154-.036.146.146,0,0,1,.088.135v.187h.379L4.257,3.046a.152.152,0,0,1-.014-.11.145.145,0,0,1,.065-.088l1.03-.62a.135.135,0,0,1,.188.051l.768,1.333,0,.008,0,.009,0,.008a.559.559,0,0,1,0,.413ZM4.673,2.262a.174.174,0,0,1-.033,0l-1.218-.3a.143.143,0,0,1-.106-.12.147.147,0,0,1,.068-.147L3.539,1.6l-.19-.342-.68,1.236a.136.136,0,0,1-.19.053L1.45,1.927a.148.148,0,0,1-.052-.2L2.12.371,2.126.363l0-.008L2.135.348l0,0A.51.51,0,0,1,2.287.209.493.493,0,0,1,2.478.143h.031l.473.011L4.373.185a.139.139,0,0,1,.118.073L4.81.834,4.964.741a.136.136,0,0,1,.157.012.15.15,0,0,1,.047.156l-.361,1.25a.141.141,0,0,1-.134.1Zm-2.724.271.358,1.237a.14.14,0,0,1,.011.055.143.143,0,0,1-.14.145h0a.13.13,0,0,1-.069-.02l-.155-.093L1.764,4.2l1.366,0h0a.136.136,0,0,1,.1.043.15.15,0,0,1,.041.1v1.24a.142.142,0,0,1-.137.145l-1.49.027H1.623l-.011,0h0a.506.506,0,0,1-.187-.066.526.526,0,0,1-.152-.141l0,0-.006-.008,0-.008,0-.007-.227-.432h0L.361,3.812a.15.15,0,0,1,0-.142L.677,3.1l0-.012L.527,3a.148.148,0,0,1-.068-.147.145.145,0,0,1,.106-.12l1.219-.3a.139.139,0,0,1,.165.1Z" transform="translate(-13714.82 -8429.953)" fill="#48aefb"/>
    </g>
  </g>
</svg>
