<svg xmlns="http://www.w3.org/2000/svg" width="39.997" height="40.002" viewBox="0 0 39.997 40.002">
  <g id="模具报产" transform="translate(-40 -624)">
    <g id="组_2456" data-name="组 2456" transform="translate(13958 9165.439)">
      <path id="矩形_1348" data-name="矩形 1348" d="M3.789,0H31.167a3.79,3.79,0,0,1,3.789,3.79V31.175a3.789,3.789,0,0,1-3.789,3.79H3.79A3.79,3.79,0,0,1,0,31.174V3.789A3.789,3.789,0,0,1,3.789,0Z" transform="translate(-13912.53 -8541.439) rotate(9)" fill="#aeffdf"/>
      <rect id="矩形_1349" data-name="矩形 1349" width="30.575" height="30.587" rx="4" transform="translate(-13913.289 -8536.732)" fill="#5dd484"/>
    </g>
    <g id="组_2455" data-name="组 2455" transform="translate(13957.48 9164.688)">
      <path id="路径_652" data-name="路径 652" d="M24.239,25.94a6.164,6.164,0,0,0,.168,4.72H12.78a.739.739,0,0,1-.609-.306.589.589,0,0,1-.031-.625L14.05,26.3a.728.728,0,0,1,.64-.355Zm2.39-6.01a.728.728,0,0,1,.64.356l1.052,1.89A6.164,6.164,0,0,0,24.9,24.648H16.122a.737.737,0,0,1-.609-.3.589.589,0,0,1-.031-.625l1.91-3.433a.728.728,0,0,1,.64-.356h8.6Zm-4.3-7.72a.728.728,0,0,1,.641.355l2.865,5.147h0a.586.586,0,0,1-.031.626.737.737,0,0,1-.61.3h-5.73a.739.739,0,0,1-.608-.3.589.589,0,0,1-.032-.625l2.865-5.148a.729.729,0,0,1,.64-.35Z" transform="translate(-13920.545 -8543.899)" fill="#fff"/>
      <ellipse id="椭圆_83" data-name="椭圆 83" cx="4.615" cy="4.615" rx="4.615" ry="4.615" transform="translate(-13895.162 -8520.42)" fill="#fff"/>
      <path id="路径_779" data-name="路径 779" d="M-.511,0H.511V-1.078H1.869V-1.6H.511v-.455H1.869v-.518H.735l1.652-2.6H1.2l-.63,1.26c-.245.511-.336.714-.539,1.092H-.007c-.189-.378-.28-.56-.539-1.092l-.637-1.26H-2.394l1.645,2.6H-1.876v.518H-.511V-1.6H-1.876v.518H-.511Z" transform="translate(-13890.544 -8513.223)" fill="#5dd484"/>
    </g>
  </g>
</svg>
