<svg xmlns="http://www.w3.org/2000/svg" width="35.122" height="35.122" viewBox="0 0 35.122 35.122">
  <g id="值机派工" transform="translate(0)">
    <rect id="矩形_1348" data-name="矩形 1348" width="30.698" height="30.698" rx="4" transform="translate(4.802) rotate(9)" fill="#aeffdf"/>
    <rect id="矩形_1349" data-name="矩形 1349" width="27.287" height="27.287" rx="4" transform="translate(3.918 3.918)" fill="#5dd484"/>
    <g id="组_676" data-name="组 676" transform="translate(8.181 8.181)">
      <rect id="矩形_1350" data-name="矩形 1350" width="18.76" height="15.775" rx="2.005" transform="translate(0 2.558)" fill="#fff"/>
      <rect id="矩形_1351" data-name="矩形 1351" width="2.558" height="5.116" rx="1.279" transform="translate(4.264)" fill="#fff"/>
      <rect id="矩形_1352" data-name="矩形 1352" width="2.558" height="5.116" rx="1.279" transform="translate(11.938)" fill="#fff"/>
    </g>
    <rect id="矩形_1353" data-name="矩形 1353" width="12.155" height="1.705" rx="0.853" transform="translate(10.739 14.15)" fill="#5dd484"/>
    <rect id="矩形_1354" data-name="矩形 1354" width="9.085" height="1.705" rx="0.853" transform="translate(10.739 17.988)" fill="#5dd484"/>
    <rect id="矩形_1355" data-name="矩形 1355" width="6.822" height="1.705" rx="0.853" transform="translate(10.739 21.825)" fill="#5dd484"/>
    <circle id="椭圆_86" data-name="椭圆 86" cx="3.699" cy="3.699" r="3.699" transform="translate(20.948 19.693)" fill="#5dd484"/>
    <g id="组_677" data-name="组 677" transform="translate(22.618 21.154)">
      <path id="路径_665" data-name="路径 665" d="M-36.547,29.878a.978.978,0,0,1-.285-.689.976.976,0,0,1,.974-.976.977.977,0,0,1,.973.976.973.973,0,0,1-.285.689.973.973,0,0,1-.688.285.978.978,0,0,1-.689-.285Z" transform="translate(37.888 -28.213)" fill="#fff"/>
      <path id="矩形_1356" data-name="矩形 1356" d="M1.932,0h.2A1.932,1.932,0,0,1,4.06,1.932h0a.355.355,0,0,1-.355.355H.355A.355.355,0,0,1,0,1.932H0A1.932,1.932,0,0,1,1.932,0Z" transform="translate(0 2.19)" fill="#fff"/>
    </g>
  </g>
</svg>
