<svg xmlns="http://www.w3.org/2000/svg" width="15.2" height="13.159" viewBox="0 0 15.2 13.159">
  <g id="员工编号" transform="translate(0.1 -116.471)">
    <path id="路径_763" data-name="路径 763" d="M191.535,225.014a1.592,1.592,0,1,1,1.592-1.592A1.595,1.595,0,0,1,191.535,225.014Zm0-2.428a.834.834,0,1,0,.834.834A.835.835,0,0,0,191.535,222.585Z" transform="translate(-186.863 -103.512)" fill="#0a328d"/>
    <path id="路径_764" data-name="路径 764" d="M150.427,370.96h-3.764a.38.38,0,0,1-.373-.383,3.464,3.464,0,0,1,.527-1.863,1.93,1.93,0,0,1,1.625-.942.379.379,0,0,1,0,.758,1.214,1.214,0,0,0-1.011.607,2.557,2.557,0,0,0-.375,1.063h2.982a2.319,2.319,0,0,0-.621-1.344.387.387,0,0,1-.02-.536.364.364,0,0,1,.523-.021,3.207,3.207,0,0,1,.884,2.277A.384.384,0,0,1,150.427,370.96Zm-4.141.815h7.549v.758h-7.549Zm0,2.174h10.655v.758H146.286Z" transform="translate(-143.859 -247.034)" fill="#0a328d"/>
    <path id="路径_765" data-name="路径 765" d="M14.648,129.53H.352a.377.377,0,0,1-.352-.4V116.969a.377.377,0,0,1,.352-.4h14.3a.377.377,0,0,1,.352.4v1.175h-.67v-.815H.67v11.442H14.33v-9.414H15v9.774a.377.377,0,0,1-.352.4Z" fill="#0a328d" stroke="#0a328d" stroke-width="0.2"/>
  </g>
</svg>
