<svg xmlns="http://www.w3.org/2000/svg" width="14.693" height="14.44" viewBox="0 0 14.693 14.44">
  <g id="公司" transform="translate(-34.862 -47.48)">
    <path id="路径_766" data-name="路径 766" d="M49.092,60.995h-.455V55.9a.845.845,0,0,0-.463-.778l-4.127-2.7V48.195L44,48.1a.942.942,0,0,0-1.1-.6l-6.472,1.927a.994.994,0,0,0-.641.917v10.65h-.463a.461.461,0,0,0-.463.463.436.436,0,0,0,.463.463H49.092a.463.463,0,0,0,0-.926ZM47.715,55.85v5.145H44.048V53.474Zm-11.021-5.5,6.422-1.927V60.995H36.694Z" fill="#0a328d"/>
    <path id="路径_767" data-name="路径 767" d="M245.982,325.137h-2.75a.463.463,0,0,0,0,.926h2.75a.463.463,0,0,0,0-.926Zm0,2.747h-2.75a.436.436,0,0,0-.463.463v.006a.436.436,0,0,0,.463.463h2.75a.436.436,0,0,0,.463-.463v-.006a.438.438,0,0,0-.463-.463Zm0,2.758h-2.75a.433.433,0,0,0-.463.463v.006a.436.436,0,0,0,.463.463h2.75a.433.433,0,0,0,.463-.463V331.1a.438.438,0,0,0-.463-.463Zm3.673.468a.436.436,0,0,0,.463.463h.917a.433.433,0,0,0,.463-.463V331.1a.436.436,0,0,0-.463-.463h-.917a.433.433,0,0,0-.463.463Z" transform="translate(-204.698 -273.37)" fill="#0a328d"/>
  </g>
</svg>
