<svg xmlns="http://www.w3.org/2000/svg" width="15" height="15" viewBox="0 0 15 15">
  <path id="名称" d="M7.5,0A7.5,7.5,0,1,0,15,7.5,7.522,7.522,0,0,0,7.5,0Zm2.625,13.594a6.406,6.406,0,0,1-5.25,0,5.076,5.076,0,0,1-2.062-1.406A5.121,5.121,0,0,1,7.5,9.094a5.025,5.025,0,0,1,4.688,3.094A5.076,5.076,0,0,1,10.125,13.594ZM7.5,7.875A2.122,2.122,0,0,1,5.344,5.719a2.156,2.156,0,1,1,4.312,0A2.122,2.122,0,0,1,7.5,7.875Zm5.344,3.562a6.933,6.933,0,0,0-1.875-2.156A5.441,5.441,0,0,0,9,8.344a3,3,0,1,0-2.812,0,5.858,5.858,0,0,0-2.062.937,5.729,5.729,0,0,0-1.969,2.25l-.844-1.406A8.133,8.133,0,0,1,.844,7.5a6.291,6.291,0,0,1,.563-2.625A5.076,5.076,0,0,1,2.813,2.812,6.6,6.6,0,0,1,4.969,1.406,5.582,5.582,0,0,1,7.5.844a6.291,6.291,0,0,1,2.625.563,5.076,5.076,0,0,1,2.063,1.406,5.38,5.38,0,0,1,1.406,2.156A5.582,5.582,0,0,1,14.156,7.5a6.291,6.291,0,0,1-.562,2.625A5.977,5.977,0,0,1,12.844,11.437Z" fill="#0a328d"/>
</svg>
