<svg xmlns="http://www.w3.org/2000/svg" width="15" height="15" viewBox="0 0 15 15">
  <g id="部门" transform="translate(-79.703 -88.714)">
    <path id="路径_759" data-name="路径 759" d="M82.186,98.192v0H80.911A1.227,1.227,0,0,0,79.7,99.433v3.038a1.227,1.227,0,0,0,1.207,1.244h3.42a1.227,1.227,0,0,0,1.207-1.244V99.433a1.227,1.227,0,0,0-1.207-1.244h-1.3v0Zm2.144.872a.364.364,0,0,1,.359.369v3.038a.365.365,0,0,1-.359.369h-3.42a.364.364,0,0,1-.359-.369V99.433a.365.365,0,0,1,.359-.369Zm3.347-4.824h1.2A1.227,1.227,0,0,0,90.086,93V89.958a1.227,1.227,0,0,0-1.207-1.244h-3.42a1.227,1.227,0,0,0-1.207,1.244V93a1.227,1.227,0,0,0,1.207,1.244h2.218Zm-2.218-.874A.364.364,0,0,1,85.1,93V89.958a.365.365,0,0,1,.359-.369h3.42a.365.365,0,0,1,.359.369V93a.365.365,0,0,1-.359.369h-3.42ZM93.5,98.189H92.2v0h-.858v0H90.076a1.227,1.227,0,0,0-1.207,1.244v3.038a1.227,1.227,0,0,0,1.207,1.244H93.5a1.227,1.227,0,0,0,1.207-1.244V99.433A1.227,1.227,0,0,0,93.5,98.189Zm.359,4.282a.364.364,0,0,1-.359.369H90.076a.365.365,0,0,1-.359-.369V99.433a.365.365,0,0,1,.359-.369H93.5a.365.365,0,0,1,.359.369v3.038Z" fill="#0a328d"/>
    <path id="路径_760" data-name="路径 760" d="M233.289,403.3v-2.276H228.85v-1.713h-.823l0,1.713h-4.563V403.3h.832v-1.394h8.152l0,1.391v0Z" transform="translate(-141.183 -305.093)" fill="#0a328d"/>
  </g>
</svg>
